<svg width="64" height="64" viewBox="0 0 64 64" fill="none" xmlns="http://www.w3.org/2000/svg">
<g id="Choose" clip-path="url(#clip0_92_2141)">
<g id="Group">
<path id="Vector" d="M40.3586 49.4281L30.4111 61.2969V28.2231L55.7861 49.8906L40.3586 49.4281Z" fill="#DEFFD6"/>
<g id="Group_2">
<path id="Vector_2" d="M45.7861 29.2144C46.4736 29.2144 47.0361 28.6519 47.0361 27.9644C47.0361 27.2769 46.4736 26.7144 45.7861 26.7144C45.0986 26.7144 44.5361 27.2769 44.5361 27.9644C44.5361 28.6519 45.0986 29.2144 45.7861 29.2144Z" fill="black"/>
<path id="Vector_3" d="M45.7861 31.7144C45.0986 31.7144 44.5361 32.2769 44.5361 32.9644C44.5361 33.6519 45.0986 34.2144 45.7861 34.2144C46.4736 34.2144 47.0361 33.6519 47.0361 32.9644C47.0361 32.2769 46.4736 31.7144 45.7861 31.7144Z" fill="black"/>
<path id="Vector_4" d="M47.0361 30.4644C47.0361 31.1519 47.5986 31.7144 48.2861 31.7144C48.9736 31.7144 49.5361 31.1519 49.5361 30.4644C49.5361 29.7769 48.9736 29.2144 48.2861 29.2144C47.5986 29.2144 47.0361 29.7769 47.0361 30.4644Z" fill="black"/>
<path id="Vector_5" d="M43.2861 31.7144C43.9736 31.7144 44.5361 31.1519 44.5361 30.4644C44.5361 29.7769 43.9736 29.2144 43.2861 29.2144C42.5986 29.2144 42.0361 29.7769 42.0361 30.4644C42.0361 31.1519 42.5986 31.7144 43.2861 31.7144Z" fill="black"/>
<path id="Vector_6" d="M55.7861 25.3781C56.4736 25.3781 57.0361 24.8156 57.0361 24.1281C57.0361 23.4406 56.4736 22.8781 55.7861 22.8781C55.0986 22.8781 54.5361 23.4406 54.5361 24.1281C54.5361 24.8156 55.0986 25.3781 55.7861 25.3781Z" fill="black"/>
<path id="Vector_7" d="M55.7861 27.8781C55.0986 27.8781 54.5361 28.4406 54.5361 29.1281C54.5361 29.8156 55.0986 30.3781 55.7861 30.3781C56.4736 30.3781 57.0361 29.8156 57.0361 29.1281C57.0361 28.4406 56.4736 27.8781 55.7861 27.8781Z" fill="black"/>
<path id="Vector_8" d="M58.2861 25.3781C57.5986 25.3781 57.0361 25.9406 57.0361 26.6281C57.0361 27.3156 57.5986 27.8781 58.2861 27.8781C58.9736 27.8781 59.5361 27.3156 59.5361 26.6281C59.5361 25.9406 58.9736 25.3781 58.2861 25.3781Z" fill="black"/>
<path id="Vector_9" d="M53.2861 27.8781C53.9736 27.8781 54.5361 27.3156 54.5361 26.6281C54.5361 25.9406 53.9736 25.3781 53.2861 25.3781C52.5986 25.3781 52.0361 25.9406 52.0361 26.6281C52.0361 27.3156 52.5986 27.8781 53.2861 27.8781Z" fill="black"/>
<path id="Vector_10" d="M17.6412 48.0293C17.6412 48.7168 18.2037 49.2793 18.8912 49.2793C19.5787 49.2793 20.1412 48.7168 20.1412 48.0293C20.1412 47.3418 19.5787 46.7793 18.8912 46.7793C18.2037 46.7793 17.6412 47.3418 17.6412 48.0293Z" fill="black"/>
<path id="Vector_11" d="M18.8912 51.7793C18.2037 51.7793 17.6412 52.3418 17.6412 53.0293C17.6412 53.7168 18.2037 54.2793 18.8912 54.2793C19.5787 54.2793 20.1412 53.7168 20.1412 53.0293C20.1412 52.3418 19.5787 51.7793 18.8912 51.7793Z" fill="black"/>
<path id="Vector_12" d="M21.3912 49.2793C20.7037 49.2793 20.1412 49.8418 20.1412 50.5293C20.1412 51.2168 20.7037 51.7793 21.3912 51.7793C22.0787 51.7793 22.6412 51.2168 22.6412 50.5293C22.6412 49.8418 22.0787 49.2793 21.3912 49.2793Z" fill="black"/>
<path id="Vector_13" d="M16.3912 49.2793C15.7037 49.2793 15.1412 49.8418 15.1412 50.5293C15.1412 51.2168 15.7037 51.7793 16.3912 51.7793C17.0787 51.7793 17.6412 51.2168 17.6412 50.5293C17.6412 49.8418 17.0787 49.2793 16.3912 49.2793Z" fill="black"/>
<path id="Vector_14" d="M21.1674 36.7481H9.16865C8.9174 36.7481 8.7124 36.5431 8.7124 36.2919V4.17061C8.7124 3.91936 8.9174 3.71436 9.16865 3.71436H36.1124C36.3637 3.71436 36.5686 3.91936 36.5686 4.17061V24.5069H40.5686V4.17061C40.5686 1.71311 38.5699 -0.285645 36.1124 -0.285645H9.16865C6.71115 -0.285645 4.7124 1.71311 4.7124 4.17061V36.2919C4.7124 38.7494 6.71115 40.7481 9.16865 40.7481H21.1674V36.7481Z" fill="black"/>
<path id="Vector_15" d="M57.0849 48.3706L31.7099 26.7031C31.1161 26.1968 30.2824 26.0806 29.5736 26.4081C28.8649 26.7343 28.4111 27.4443 28.4111 28.2243V61.2981C28.4111 62.1393 28.9374 62.8906 29.7274 63.1781C29.9511 63.2593 30.1811 63.2981 30.4099 63.2981C30.9899 63.2981 31.5561 63.0456 31.9436 62.5831L41.2674 51.4581L55.7261 51.8918C56.5749 51.9181 57.3461 51.4043 57.6524 50.6131C57.9586 49.8218 57.7311 48.9231 57.0849 48.3718V48.3706ZM40.4186 47.4293C39.8099 47.4118 39.2199 47.6743 38.8261 48.1443L32.4124 55.7968V32.5606L50.1674 47.7206L40.4199 47.4281L40.4186 47.4293Z" fill="black"/>
</g>
</g>
</g>
<defs>
<clipPath id="clip0_92_2141">
<rect width="64" height="64" fill="white"/>
</clipPath>
</defs>
</svg>
