<svg width="65" height="64" viewBox="0 0 65 64" fill="none" xmlns="http://www.w3.org/2000/svg">
<g id="Pay" clip-path="url(#clip0_92_2159)">
<g id="Group">
<path id="Vector" d="M44.9138 31.6906L20.625 33.7531L19.7 20.2531H45.55L44.9138 31.6906Z" fill="#DEFFD6"/>
<g id="Group_2">
<path id="Vector_2" d="M47.2 9.5094C47.8875 9.5094 48.45 8.9469 48.45 8.2594C48.45 7.5719 47.8875 7.0094 47.2 7.0094C46.5125 7.0094 45.95 7.5719 45.95 8.2594C45.95 8.9469 46.5125 9.5094 47.2 9.5094Z" fill="black"/>
<path id="Vector_3" d="M47.2 12.0094C46.5125 12.0094 45.95 12.5719 45.95 13.2594C45.95 13.9469 46.5125 14.5094 47.2 14.5094C47.8875 14.5094 48.45 13.9469 48.45 13.2594C48.45 12.5719 47.8875 12.0094 47.2 12.0094Z" fill="black"/>
<path id="Vector_4" d="M49.7 9.5094C49.0125 9.5094 48.45 10.0719 48.45 10.7594C48.45 11.4469 49.0125 12.0094 49.7 12.0094C50.3875 12.0094 50.95 11.4469 50.95 10.7594C50.95 10.0719 50.3875 9.5094 49.7 9.5094Z" fill="black"/>
<path id="Vector_5" d="M44.7 12.0094C45.3875 12.0094 45.95 11.4469 45.95 10.7594C45.95 10.0719 45.3875 9.5094 44.7 9.5094C44.0125 9.5094 43.45 10.0719 43.45 10.7594C43.45 11.4469 44.0125 12.0094 44.7 12.0094Z" fill="black"/>
<path id="Vector_6" d="M54.7 19.6731C55.3875 19.6731 55.95 19.1106 55.95 18.4231C55.95 17.7356 55.3875 17.1731 54.7 17.1731C54.0125 17.1731 53.45 17.7356 53.45 18.4231C53.45 19.1106 54.0125 19.6731 54.7 19.6731Z" fill="black"/>
<path id="Vector_7" d="M55.95 23.4231C55.95 22.7327 55.3904 22.1731 54.7 22.1731C54.0096 22.1731 53.45 22.7327 53.45 23.4231C53.45 24.1135 54.0096 24.6731 54.7 24.6731C55.3904 24.6731 55.95 24.1135 55.95 23.4231Z" fill="black"/>
<path id="Vector_8" d="M58.45 20.9231C58.45 20.2327 57.8904 19.6731 57.2 19.6731C56.5096 19.6731 55.95 20.2327 55.95 20.9231C55.95 21.6135 56.5096 22.1731 57.2 22.1731C57.8904 22.1731 58.45 21.6135 58.45 20.9231Z" fill="black"/>
<path id="Vector_9" d="M53.45 20.9231C53.45 20.2327 52.8904 19.6731 52.2 19.6731C51.5096 19.6731 50.95 20.2327 50.95 20.9231C50.95 21.6135 51.5096 22.1731 52.2 22.1731C52.8904 22.1731 53.45 21.6135 53.45 20.9231Z" fill="black"/>
<path id="Vector_10" d="M57.55 -0.190645H7.7C3.79875 -0.190645 0.625 2.98311 0.625 6.88436V44.3181C0.625 48.2194 3.79875 51.3931 7.7 51.3931H30V59.7156H12.375C11.27 59.7156 10.375 60.6106 10.375 61.7156C10.375 62.8206 11.27 63.7156 12.375 63.7156H52.875C53.98 63.7156 54.875 62.8206 54.875 61.7156C54.875 60.6106 53.98 59.7156 52.875 59.7156H34V51.3931H57.55C61.4513 51.3931 64.625 48.2194 64.625 44.3181V6.88311C64.625 2.98186 61.4513 -0.191895 57.55 -0.191895V-0.190645ZM60.625 44.3181C60.625 46.0131 59.2463 47.3931 57.55 47.3931H7.7C6.005 47.3931 4.625 46.0144 4.625 44.3181V6.88311C4.625 5.18811 6.00375 3.80811 7.7 3.80811H57.55C59.245 3.80811 60.625 5.18686 60.625 6.88311V44.3169V44.3181Z" fill="black"/>
<path id="Vector_11" d="M45.55 18.2531H21.1712L20.905 14.3731C20.8325 13.3244 19.9613 12.5094 18.91 12.5094H13.0262C11.9212 12.5094 11.0262 13.4044 11.0262 14.5094C11.0262 15.6144 11.9212 16.5094 13.0262 16.5094H17.0425L18.2337 33.8894C18.3062 34.9444 19.185 35.7531 20.2275 35.7531C20.2737 35.7531 20.32 35.7519 20.3663 35.7481C20.385 35.7469 20.4025 35.7431 20.4212 35.7419C20.4887 35.7494 20.5562 35.7531 20.6237 35.7531C20.68 35.7531 20.7362 35.7506 20.7925 35.7456L45.0813 33.6831C46.0738 33.5994 46.8538 32.7969 46.9088 31.8019L47.545 20.3644C47.575 19.8156 47.3787 19.2782 47.0013 18.8794C46.6238 18.4807 46.0975 18.2544 45.5488 18.2544L45.55 18.2531ZM43.0137 29.8444L22.4812 31.5882L21.8412 22.2531H43.435L43.0125 29.8444H43.0137Z" fill="black"/>
<path id="Vector_12" d="M22.67 42.6218C24.0507 42.6218 25.17 41.5025 25.17 40.1218C25.17 38.7411 24.0507 37.6218 22.67 37.6218C21.2893 37.6218 20.17 38.7411 20.17 40.1218C20.17 41.5025 21.2893 42.6218 22.67 42.6218Z" fill="black"/>
<path id="Vector_13" d="M44.1537 38.6906C44.1537 37.0337 42.8106 35.6906 41.1537 35.6906C39.4969 35.6906 38.1537 37.0337 38.1537 38.6906C38.1537 40.3474 39.4969 41.6906 41.1537 41.6906C42.8106 41.6906 44.1537 40.3474 44.1537 38.6906Z" fill="black"/>
</g>
</g>
</g>
<defs>
<clipPath id="clip0_92_2159">
<rect width="64" height="64" fill="white" transform="translate(0.333282)"/>
</clipPath>
</defs>
</svg>
