<svg width="65" height="64" viewBox="0 0 65 64" fill="none" xmlns="http://www.w3.org/2000/svg">
<g id="Search" clip-path="url(#clip0_92_2123)">
<g id="Group">
<path id="Vector" d="M45.43 50.4807L51.641 44.2697L61.4946 54.1232C63.1828 55.8114 63.1828 58.5532 61.4946 60.2414L61.4018 60.3342C59.7136 62.0225 56.9717 62.0225 55.2835 60.3342L45.43 50.4807Z" fill="#DEFFD6"/>
<g id="Group_2">
<path id="Vector_2" d="M62.9086 52.7094L51.6411 41.4419L48.5361 44.5469L44.8249 40.8356C53.1449 31.0694 52.6936 16.3431 43.4674 7.11688C38.7661 2.41688 32.5174 -0.171875 25.8711 -0.171875C19.2249 -0.171875 12.9761 2.41687 8.27614 7.11562C-1.42636 16.8169 -1.42636 32.6031 8.27614 42.3056C13.1274 47.1569 19.4986 49.5819 25.8711 49.5819C31.6174 49.5819 37.3636 47.6081 41.9949 43.6631L45.7061 47.3744L42.6011 50.4794L53.8686 61.7469C55.0636 62.9419 56.6524 63.5994 58.3411 63.5994C60.0299 63.5994 61.6199 62.9419 62.8149 61.7456L62.9086 61.6519C64.1036 60.4569 64.7611 58.8694 64.7611 57.1794C64.7611 55.4894 64.1036 53.9006 62.9086 52.7069V52.7094ZM11.1049 39.4781C2.96239 31.3356 2.96239 18.0869 11.1049 9.94437C15.0486 6.00062 20.2936 3.82812 25.8711 3.82812C31.4486 3.82812 36.6936 6.00062 40.6374 9.94437C48.7799 18.0869 48.7799 31.3356 40.6374 39.4781C32.4949 47.6206 19.2461 47.6206 11.1036 39.4781H11.1049ZM60.0799 58.8269L59.9861 58.9206C59.0786 59.8269 57.6036 59.8269 56.6974 58.9206L48.2586 50.4819L51.6411 47.0994L60.0799 55.5381C60.5186 55.9769 60.7611 56.5619 60.7611 57.1831C60.7611 57.8044 60.5186 58.3881 60.0799 58.8281V58.8269Z" fill="black"/>
<path id="Vector_3" d="M34.5524 54.5269C35.2399 54.5269 35.8024 53.9644 35.8024 53.2769C35.8024 52.5894 35.2399 52.0269 34.5524 52.0269C33.8649 52.0269 33.3024 52.5894 33.3024 53.2769C33.3024 53.9644 33.8649 54.5269 34.5524 54.5269Z" fill="black"/>
<path id="Vector_4" d="M34.5524 57.0269C33.8649 57.0269 33.3024 57.5894 33.3024 58.2769C33.3024 58.9644 33.8649 59.5269 34.5524 59.5269C35.2399 59.5269 35.8024 58.9644 35.8024 58.2769C35.8024 57.5894 35.2399 57.0269 34.5524 57.0269Z" fill="black"/>
<path id="Vector_5" d="M37.0524 54.5269C36.3649 54.5269 35.8024 55.0894 35.8024 55.7769C35.8024 56.4644 36.3649 57.0269 37.0524 57.0269C37.7399 57.0269 38.3024 56.4644 38.3024 55.7769C38.3024 55.0894 37.7399 54.5269 37.0524 54.5269Z" fill="black"/>
<path id="Vector_6" d="M32.0524 54.5269C31.3649 54.5269 30.8024 55.0894 30.8024 55.7769C30.8024 56.4644 31.3649 57.0269 32.0524 57.0269C32.7399 57.0269 33.3024 56.4644 33.3024 55.7769C33.3024 55.0894 32.7399 54.5269 32.0524 54.5269Z" fill="black"/>
<path id="Vector_7" d="M15.7499 52.0269C16.4374 52.0269 16.9999 51.4644 16.9999 50.7769C16.9999 50.0894 16.4374 49.5269 15.7499 49.5269C15.0624 49.5269 14.4999 50.0894 14.4999 50.7769C14.4999 51.4644 15.0624 52.0269 15.7499 52.0269Z" fill="black"/>
<path id="Vector_8" d="M15.7499 54.5269C15.0624 54.5269 14.4999 55.0894 14.4999 55.7769C14.4999 56.4644 15.0624 57.0269 15.7499 57.0269C16.4374 57.0269 16.9999 56.4644 16.9999 55.7769C16.9999 55.0894 16.4374 54.5269 15.7499 54.5269Z" fill="black"/>
<path id="Vector_9" d="M18.2499 52.0269C17.5624 52.0269 16.9999 52.5894 16.9999 53.2769C16.9999 53.9644 17.5624 54.5269 18.2499 54.5269C18.9374 54.5269 19.4999 53.9644 19.4999 53.2769C19.4999 52.5894 18.9374 52.0269 18.2499 52.0269Z" fill="black"/>
<path id="Vector_10" d="M13.2499 52.0269C12.5624 52.0269 11.9999 52.5894 11.9999 53.2769C11.9999 53.9644 12.5624 54.5269 13.2499 54.5269C13.9374 54.5269 14.4999 53.9644 14.4999 53.2769C14.4999 52.5894 13.9374 52.0269 13.2499 52.0269Z" fill="black"/>
<path id="Vector_11" d="M57.1249 35.4644C57.8124 35.4644 58.3749 34.9019 58.3749 34.2144C58.3749 33.5269 57.8124 32.9644 57.1249 32.9644C56.4374 32.9644 55.8749 33.5269 55.8749 34.2144C55.8749 34.9019 56.4374 35.4644 57.1249 35.4644Z" fill="black"/>
<path id="Vector_12" d="M57.1249 37.9644C56.4374 37.9644 55.8749 38.5269 55.8749 39.2144C55.8749 39.9019 56.4374 40.4644 57.1249 40.4644C57.8124 40.4644 58.3749 39.9019 58.3749 39.2144C58.3749 38.5269 57.8124 37.9644 57.1249 37.9644Z" fill="black"/>
<path id="Vector_13" d="M58.3749 36.7144C58.3749 37.4019 58.9374 37.9644 59.6249 37.9644C60.3124 37.9644 60.8749 37.4019 60.8749 36.7144C60.8749 36.0269 60.3124 35.4644 59.6249 35.4644C58.9374 35.4644 58.3749 36.0269 58.3749 36.7144Z" fill="black"/>
<path id="Vector_14" d="M54.6249 37.9644C55.3124 37.9644 55.8749 37.4019 55.8749 36.7144C55.8749 36.0269 55.3124 35.4644 54.6249 35.4644C53.9374 35.4644 53.3749 36.0269 53.3749 36.7144C53.3749 37.4019 53.9374 37.9644 54.6249 37.9644Z" fill="black"/>
</g>
</g>
</g>
<defs>
<clipPath id="clip0_92_2123">
<rect width="64" height="64" fill="white" transform="translate(0.666687)"/>
</clipPath>
</defs>
</svg>
